<?xml version="1.0" encoding="UTF-8" standalone="no"?>
<!-- Created with Inkscape (http://www.inkscape.org/) -->

<svg
   xmlns:dc="http://purl.org/dc/elements/1.1/"
   xmlns:cc="http://creativecommons.org/ns#"
   xmlns:rdf="http://www.w3.org/1999/02/22-rdf-syntax-ns#"
   xmlns:svg="http://www.w3.org/2000/svg"
   xmlns="http://www.w3.org/2000/svg"
   xmlns:sodipodi="http://sodipodi.sourceforge.net/DTD/sodipodi-0.dtd"
   xmlns:inkscape="http://www.inkscape.org/namespaces/inkscape"
   width="210mm"
   height="297mm"
   viewBox="0 0 210 297"
   version="1.1"
   id="svg8"
   inkscape:version="0.92.2 (5c3e80d, 2017-08-06)"
   sodipodi:docname="mosarmooooo.svg">
  <defs
     id="defs2" />
  <sodipodi:namedview
     id="base"
     pagecolor="#ffffff"
     bordercolor="#666666"
     borderopacity="1.0"
     inkscape:pageopacity="0.0"
     inkscape:pageshadow="2"
     inkscape:zoom="0.35"
     inkscape:cx="-71.428571"
     inkscape:cy="560"
     inkscape:document-units="mm"
     inkscape:current-layer="layer1"
     showgrid="false"
     inkscape:window-width="1920"
     inkscape:window-height="1013"
     inkscape:window-x="-9"
     inkscape:window-y="-9"
     inkscape:window-maximized="1" />
  <metadata
     id="metadata5">
    <rdf:RDF>
      <cc:Work
         rdf:about="">
        <dc:format>image/svg+xml</dc:format>
        <dc:type
           rdf:resource="http://purl.org/dc/dcmitype/StillImage" />
        <dc:title></dc:title>
      </cc:Work>
    </rdf:RDF>
  </metadata>
  <g
     inkscape:label="Layer 1"
     inkscape:groupmode="layer"
     id="layer1">
    <g
       id="g4531"
       style="fill:#ffffff;fill-opacity:1">
      <path
         style="fill:#ffffff;fill-opacity:1;stroke-width:0.16448213"
         d="M 79.539189,278.61906 C 71.904441,277.16474 65.703585,270.5182 64.540631,262.54253 l -0.19973,-1.36978 h -1.957806 c -3.296698,0 -5.622943,-0.55897 -8.501274,-2.04276 -3.640753,-1.87681 -6.474256,-4.87329 -8.347492,-8.82761 -3.420621,-7.22081 -2.18672,-15.91062 3.100511,-21.83555 1.727639,-1.936 3.067829,-2.98927 5.246981,-4.12363 6.202834,-3.22889 13.226473,-2.69983 18.908937,1.42432 1.325868,0.96228 3.296931,2.98391 4.367386,4.47944 1.580152,2.20763 2.934258,5.63485 3.313041,8.38527 l 0.191378,1.38964 h 2.194689 2.194689 l 0.191378,-1.38964 c 0.378783,-2.75042 1.732889,-6.17764 3.313041,-8.38527 4.753584,-6.64121 12.60575,-9.46751 20.11082,-7.23864 1.75461,0.52109 4.60389,1.99336 5.98296,3.09148 2.26799,1.80597 4.65562,4.90328 5.76259,7.47543 0.65059,1.51171 1.23485,3.55288 1.46095,5.10394 l 0.19573,1.3427 h 2.14571 2.14571 l 0.0781,-0.5056 c 0.32185,-2.08359 0.46387,-2.73731 0.86504,-3.98179 0.94483,-2.93099 2.29219,-5.20716 4.43427,-7.49104 9.3849,-10.00617 25.55059,-6.50692 30.40968,6.58251 3.45861,9.3168 -0.30828,19.82596 -8.74129,24.38715 -2.78483,1.50625 -5.41078,2.15965 -8.67932,2.15965 H 142.749 l -0.0967,0.632 c -0.75867,4.95564 -2.4544,8.46684 -5.63727,11.67269 -2.77963,2.79968 -5.79216,4.41399 -9.61101,5.15021 -2.13976,0.41252 -5.71589,0.26483 -7.84794,-0.32409 -5.26511,-1.45433 -9.83762,-5.44826 -12.13816,-10.60228 -0.75314,-1.68729 -1.39904,-3.96351 -1.54285,-5.43718 l -0.1065,-1.09135 h -2.18979 -2.1898 l -0.19619,1.30613 c -1.222075,8.13606 -7.383555,14.72024 -15.105809,16.1421 -1.631295,0.30037 -4.965932,0.29938 -6.547742,-0.002 z m 7.320482,-3.78963 c 5.665655,-1.71338 9.843691,-6.51601 10.932393,-12.56675 0.317632,-1.76531 0.267382,-1.86611 -1.249794,-2.50682 -5.830114,-2.4621 -10.392162,-8.45542 -11.296791,-14.84099 l -0.175525,-1.23899 -1.106351,-0.11666 c -0.608494,-0.0641 -1.600017,-0.0646 -2.203388,-0.002 l -1.097036,0.11566 -0.182468,1.23221 c -0.954295,6.44431 -5.417168,12.31523 -11.268399,14.82355 -1.352196,0.57967 -1.364911,0.59071 -1.410774,1.22468 -0.06455,0.8923 0.662174,3.76952 1.318693,5.2209 1.424932,3.1501 3.971604,5.94183 6.795416,7.44932 1.014529,0.5416 2.816725,1.19535 4.027023,1.46079 1.602131,0.35141 5.369685,0.212 6.917001,-0.25593 z m 39.821919,0.32471 c 1.39941,-0.2318 2.87741,-0.74984 4.33427,-1.51917 4.51511,-2.38432 7.63834,-7.03519 8.26598,-12.30902 l 0.11162,-0.93801 -0.77756,-0.30425 c -1.36558,-0.53433 -3.79398,-1.91497 -4.87925,-2.77405 -1.30516,-1.03313 -3.26374,-3.16916 -4.11909,-4.49228 -1.48712,-2.30042 -2.61837,-5.21441 -2.98361,-7.68544 l -0.20678,-1.39894 -0.6353,-0.11838 c -0.81968,-0.15274 -2.08042,-0.16595 -3.01413,-0.0316 -0.73689,0.10604 -0.73824,0.10748 -0.83857,0.8848 -0.35969,2.78689 -1.84168,6.58741 -3.42521,8.7839 -2.15514,2.98935 -4.97261,5.27186 -8.12603,6.58315 -0.70633,0.29372 -1.29856,0.54665 -1.31607,0.56209 -0.0175,0.0155 0.0424,0.59078 0.13322,1.27853 0.78734,5.96483 4.76552,10.93888 10.31221,12.89369 0.6584,0.23204 1.58257,0.48917 2.05369,0.57141 1.20813,0.2109 3.87649,0.21798 5.11061,0.0136 z m -62.653644,-17.6248 c 0.279511,-0.0787 0.374526,-0.26413 0.452148,-0.88249 0.143468,-1.14289 0.815231,-3.59349 1.365369,-4.98087 1.095401,-2.76248 3.510411,-5.94162 5.980711,-7.87305 1.286441,-1.00582 3.661224,-2.3466 4.77904,-2.69821 0.60742,-0.19105 0.633533,-0.22854 0.633533,-0.90939 0,-1.17486 -0.758333,-3.94281 -1.522319,-5.55651 -1.939315,-4.09626 -5.650455,-7.21525 -9.955483,-8.36697 -2.060757,-0.55131 -5.181103,-0.54883 -7.223792,0.006 -5.352029,1.45297 -9.429501,5.62015 -11.028741,11.27134 -0.321568,1.13632 -0.368797,1.67011 -0.368797,4.16828 0,2.47949 0.0494,3.0465 0.367119,4.21332 1.627468,5.97695 6.429832,10.51706 12.207232,11.54059 0.907084,0.16072 3.821699,0.20681 4.31398,0.0682 z m 41.392574,0.007 c 0.27431,-0.0773 0.36086,-0.31177 0.51246,-1.38809 0.89881,-6.38097 5.31507,-12.12983 11.35768,-14.78488 l 1.28423,-0.56427 -0.0266,-1.00105 c -0.0764,-2.87939 -1.7472,-6.52536 -4.20934,-9.18575 -2.00901,-2.17077 -4.32893,-3.57733 -7.16162,-4.34209 -2.12889,-0.57473 -5.31945,-0.5481 -7.49829,0.0626 -4.689736,1.31442 -8.615284,5.04112 -10.320709,9.79793 -0.482125,1.34476 -0.882594,3.21815 -0.882594,4.12875 0,0.58952 0.04442,0.65041 0.602467,0.82595 1.15747,0.36407 3.501245,1.67855 4.775244,2.67816 1.588148,1.24608 3.449942,3.28443 4.462721,4.88593 1.427193,2.25683 2.579781,5.4071 2.929321,8.00651 0.0709,0.52721 0.19461,0.81621 0.37042,0.86525 0.39492,0.11019 3.42476,0.12219 3.80459,0.015 z m 43.32897,-0.40215 c 3.73482,-1.07103 7.03651,-3.65627 9.0446,-7.08201 4.80559,-8.19818 1.58511,-19.04986 -6.7924,-22.88763 -8.20058,-3.75671 -17.67715,0.67189 -20.51239,9.58588 -0.46554,1.46359 -0.85,3.8403 -0.65104,4.02445 0.0738,0.0683 0.63983,0.33083 1.25787,0.58343 5.82149,2.37931 10.30902,8.15409 11.38843,14.6552 0.12135,0.73086 0.31751,1.39859 0.43592,1.48383 0.39956,0.28767 4.43652,0.0362 5.82901,-0.36315 z m -79.322269,-1.4281 c 2.838321,-1.69814 4.913282,-3.96775 6.326565,-6.92005 0.539413,-1.12681 1.382085,-3.78764 1.24508,-3.93148 -0.04852,-0.0509 -0.429766,0.0814 -0.84721,0.29419 -3.576592,1.82277 -6.747382,5.77058 -7.815584,9.73084 -0.1461,0.54166 -0.302535,1.11756 -0.347631,1.27977 -0.119611,0.43025 0.05287,0.37589 1.43878,-0.45327 z m 28.359201,0.70265 c 0,-0.31764 -0.735766,-2.67019 -1.106189,-3.53697 -1.329738,-3.11151 -4.217765,-6.24529 -7.117386,-7.72305 -0.417443,-0.21274 -0.798688,-0.34513 -0.847209,-0.2942 -0.157607,0.16549 0.73976,2.88696 1.379704,4.18429 1.344781,2.72622 3.522916,5.08855 6.09915,6.6149 1.2102,0.71702 1.59193,0.89808 1.59193,0.75503 z m 13.566418,-1.03227 c 2.30154,-1.40216 4.54137,-3.95796 5.77528,-6.59001 0.74444,-1.58796 1.45761,-3.96097 1.19041,-3.96097 -0.23576,0 -1.73817,0.82279 -2.55289,1.39809 -2.14298,1.51323 -3.80374,3.48425 -5.00953,5.94542 -0.67457,1.37687 -1.41162,3.48732 -1.41162,4.04196 0,0.26182 0.65676,-0.0111 2.00835,-0.83449 z m 27.45576,-0.24171 c -0.87929,-3.5625 -3.67784,-7.42289 -6.76039,-9.32548 -1.54434,-0.95317 -1.99552,-1.11822 -1.99552,-0.72993 0,0.87917 1.33024,4.14609 2.29845,5.64479 0.65602,1.01543 2.56986,3.08772 3.55155,3.84562 1.01902,0.78669 3.04478,1.90976 3.10781,1.72292 0.0266,-0.079 -0.0642,-0.60007 -0.2019,-1.15792 z M 74.750552,216.07604 c -1.410355,-0.35611 -1.877961,-0.51929 -2.667929,-0.93094 -1.852307,-0.96526 -3.172518,-2.91726 -3.542096,-5.23718 -0.261116,-1.63908 -0.263662,-15.93727 -0.0031,-17.47572 0.709377,-4.1886 3.934044,-6.49079 8.7007,-6.21172 2.6163,0.15318 4.642976,1.11734 5.923408,2.81797 1.415781,1.88041 1.611262,3.35283 1.611262,12.13658 0,8.77748 -0.195958,10.2568 -1.606909,12.1308 -1.395034,1.85285 -3.288101,2.699 -6.248186,2.79277 -1.015344,0.0322 -1.990556,0.022 -2.167138,-0.0226 z m 2.417381,-5.02818 c 0.301175,-0.23114 0.313081,-0.55825 0.355613,-9.77085 0.04329,-9.37623 0.03871,-9.53726 -0.280925,-9.87283 -0.407005,-0.42729 -0.822973,-0.43334 -1.310452,-0.019 l -0.378973,0.32207 -0.048,8.98937 c -0.0264,4.94415 -0.0055,9.2334 0.04644,9.53169 0.170292,0.97789 0.916797,1.35643 1.616299,0.81959 z m 15.321041,4.87335 c -2.196684,-0.52208 -4.176981,-1.97398 -4.81126,-3.52746 -0.433302,-1.06127 -0.623608,-2.31059 -0.747839,-4.90945 l -0.108246,-2.26448 h 3.395522 3.395524 v 2.61993 c 0,2.55693 0.0095,2.62986 0.394026,3.03359 0.670878,0.70432 1.553462,0.468 1.947231,-0.52142 0.473259,-1.18914 0.183094,-3.91802 -0.50834,-4.78072 -0.21223,-0.2648 -1.626453,-1.38122 -3.142717,-2.48094 -1.516266,-1.09973 -3.090558,-2.31425 -3.498428,-2.69896 -1.507913,-1.42226 -2.183646,-3.72746 -2.04279,-6.96878 0.151505,-3.48639 1.003404,-5.18027 3.162651,-6.28845 2.692287,-1.38177 7.36306,-1.22146 9.908408,0.34006 0.903304,0.55417 1.864504,1.72278 2.102254,2.5559 0.20015,0.70134 0.49549,3.46219 0.50264,4.69862 l 0.004,0.71626 h -3.371099 -3.371103 v -1.85386 c 0,-1.62916 -0.03891,-1.89471 -0.321057,-2.19093 -0.545761,-0.57297 -1.315563,-0.41408 -1.691489,0.34912 -0.300515,0.61011 -0.308931,2.68208 -0.01384,3.40615 0.307894,0.75548 0.869383,1.25469 2.944718,2.61807 3.090174,2.03012 4.73865,3.50906 5.38071,4.82738 0.59057,1.21259 0.78695,2.31456 0.87219,4.89418 0.0985,2.98069 -0.15507,4.64515 -0.87294,5.73012 -0.58939,0.89079 -2.203638,2.01213 -3.53828,2.45786 -1.415947,0.47289 -4.470397,0.59474 -5.970593,0.23821 z M 43.688248,201.17503 v -14.3253 h 4.557203 4.557202 l 0.09524,0.54774 c 0.05238,0.30125 0.463231,3.20158 0.913002,6.44517 0.721769,5.20515 0.953837,6.61911 0.953837,5.81157 0,-0.31816 1.435944,-11.9589 1.532719,-12.42528 l 0.07869,-0.3792 h 4.57201 4.57201 v 14.3253 14.3253 h -3.128939 -3.128939 l -0.0415,-9.22718 -0.0415,-9.22717 -1.093937,8.93224 c -0.601665,4.91273 -1.130893,9.06707 -1.176063,9.23185 -0.07438,0.27133 -0.289223,0.29518 -2.277167,0.25279 l -2.195039,-0.0468 -1.203965,-9.08781 -1.203965,-9.0878 -0.04151,9.12993 -0.04151,9.12995 h -3.128928 -3.128927 z m 60.031872,14.1989 c -0.003,-0.0695 0.80596,-6.5159 1.79818,-14.3253 l 1.80405,-14.1989 h 5.09179 5.0918 l 0.0894,0.46347 c 0.1688,0.87516 3.94933,27.55496 3.94933,27.87106 0,0.29965 -0.18654,0.31607 -3.5899,0.31607 h -3.5899 l -0.10689,-1.6432 c -0.0588,-0.90375 -0.15026,-2.07927 -0.20326,-2.61226 l -0.0964,-0.96906 h -1.245 -1.24499 l -0.0933,0.8848 c -0.0513,0.48664 -0.13547,1.49151 -0.18706,2.23306 -0.0516,0.74154 -0.12768,1.5189 -0.16909,1.72746 l -0.0753,0.3792 h -3.60884 c -1.98486,0 -3.61147,-0.0569 -3.6147,-0.1264 z m 10.05166,-10.78611 c -0.12346,-0.81497 -0.68734,-6.75218 -0.82832,-8.72157 -0.0597,-0.83424 -0.15801,-1.6147 -0.21842,-1.73436 -0.1015,-0.20108 -0.75724,4.64844 -1.13466,8.39141 -0.0888,0.88058 -0.19247,1.84754 -0.2304,2.14879 l -0.069,0.54773 h 1.28825 1.28824 z m 9.05712,-3.41279 v -14.3253 l 4.29414,0.005 c 4.74892,0.005 6.84657,0.15987 8.10323,0.59808 1.14308,0.3986 2.36443,1.68897 2.8269,2.98666 0.90498,2.5394 0.76582,7.4593 -0.24675,8.72266 -0.48253,0.60206 -1.32404,1.07751 -2.20446,1.24551 l -0.63109,0.12041 0.88203,0.37637 c 1.04968,0.44788 1.45948,0.73337 1.90353,1.32603 0.81366,1.08598 0.8473,1.35718 0.93003,7.49805 l 0.0778,5.77225 h -3.38681 -3.3868 l -0.0459,-6.06268 c -0.0439,-5.8049 -0.0596,-6.07689 -0.36697,-6.39689 -0.17658,-0.18382 -0.62806,-0.38515 -1.0033,-0.44739 l -0.68225,-0.11315 v 6.51006 6.51005 h -3.53163 -3.53163 v -14.32529 z m 8.23474,-3.2132 c 0.8142,-0.23737 0.9154,-0.58101 0.9154,-3.10835 0,-1.92448 -0.028,-2.11947 -0.36119,-2.51402 -0.23176,-0.27446 -0.60566,-0.46672 -1.04344,-0.53654 l -0.68225,-0.10881 v 3.22367 c 0,3.60195 -0.0749,3.40741 1.17148,3.04405 z m 10.38659,3.2132 v -14.3253 h 4.5572 4.5572 l 0.0952,0.54774 c 0.0524,0.30125 0.46323,3.20158 0.91301,6.44517 0.72175,5.20515 0.95383,6.61911 0.95383,5.81157 0,-0.31816 1.43595,-11.9589 1.53271,-12.42528 l 0.0787,-0.3792 h 4.57202 4.572 v 14.3253 14.3253 h -3.12894 -3.12893 l -0.0415,-9.22718 -0.0415,-9.22717 -1.09394,8.93224 c -0.60166,4.91273 -1.13089,9.06707 -1.17606,9.23185 -0.0744,0.27133 -0.28923,0.29518 -2.27717,0.25279 l -2.19504,-0.0468 -1.20396,-9.08781 -1.20397,-9.0878 -0.0415,9.12993 -0.0415,9.12995 h -3.12893 -3.12893 z M 43.688248,178.92869 v -2.0224 l 16.815382,-0.006 c 17.456702,-0.006 20.008558,-0.0801 22.442255,-0.65058 6.13533,-1.43806 11.496865,-5.36897 14.873154,-10.90451 2.021633,-3.31454 3.378231,-7.7761 3.578861,-11.7701 0.0422,-0.8401 0.0776,-27.29404 0.0787,-58.786518 l 0.002,-57.259107 h 1.92434 1.92434 l 0.0456,58.944386 0.0456,58.944389 0.36587,1.66831 c 1.04836,4.78039 2.98385,8.66615 5.94236,11.93005 2.71701,2.99748 5.88169,5.16793 9.3363,6.40319 2.08885,0.7469 4.04752,1.15541 6.34089,1.32248 1.14778,0.0836 9.70797,0.15454 19.02265,0.15764 l 16.93578,0.006 -0.0497,2.03056 -0.0497,2.03055 -18.57163,-0.0559 -18.57164,-0.0559 -1.99006,-0.38747 c -5.43314,-1.0579 -10.23479,-3.6199 -14.13165,-7.54021 -2.65952,-2.67553 -4.96315,-6.04068 -6.06336,-8.85739 -0.24721,-0.63289 -0.4856,-1.14758 -0.52974,-1.14375 -0.0441,0.004 -0.40532,0.74303 -0.8026,1.64265 -1.51343,3.42706 -4.425188,7.34019 -7.290202,9.79732 -3.401071,2.91688 -7.564136,5.00187 -11.794225,5.90689 -2.88504,0.61725 -4.814129,0.67518 -22.532687,0.67665 l -17.296968,0.002 z m 0.03514,-7.41208 0.04512,-2.03241 16.77525,0.001 c 9.226387,6.8e-4 17.586435,-0.0695 18.577886,-0.156 3.974909,-0.34693 7.300598,-1.85805 10.070474,-4.57579 2.686281,-2.63574 4.549797,-6.38349 5.049465,-10.15509 0.121043,-0.91367 0.173732,-14.85226 0.173732,-45.9604 V 63.989242 h 1.92863 1.928631 l -0.04242,45.714548 -0.04242,45.71456 -0.512211,1.98658 c -2.07484,8.04715 -7.82005,13.78279 -15.701188,15.67503 -1.404623,0.33725 -1.956614,0.34859 -19.87042,0.40796 l -18.42566,0.0611 z m 82.895402,1.83996 c -4.76177,-0.58008 -8.74764,-2.61509 -12.15046,-6.20351 -2.43722,-2.57014 -3.88282,-5.01587 -4.94375,-8.36406 -1.04728,-3.30511 -0.98166,0.0138 -0.98222,-49.68042 l -5.2e-4,-45.130035 1.88622,0.04748 1.88621,0.04748 0.0815,45.503885 0.0815,45.50389 0.42754,1.5168 c 0.90296,3.20341 2.15714,5.45303 4.28633,7.68839 2.92668,3.0726 6.26123,4.67438 10.49699,5.04231 0.99146,0.0861 9.42374,0.15767 18.73842,0.159 l 16.93578,0.002 -0.0496,2.02271 -0.0496,2.02272 -17.76912,-0.0222 c -9.77302,-0.0121 -18.26692,-0.0828 -18.87535,-0.15692 z m -82.895392,-9.24932 0.04512,-2.02391 17.898951,-0.0537 c 16.162633,-0.0485 17.983893,-0.081 18.77458,-0.33488 3.173317,-1.01887 5.529838,-3.43703 6.609084,-6.78197 0.179144,-0.55523 0.231943,-6.81247 0.299351,-35.47618 l 0.08184,-34.802046 1.885432,-0.04747 1.885432,-0.04748 0.04091,33.922586 c 0.0225,18.65743 -0.0133,34.49139 -0.07957,35.18659 -0.467729,4.90727 -3.603437,9.34511 -7.986805,11.30341 -2.531045,1.13076 -1.262048,1.06382 -21.314586,1.12422 l -18.184859,0.0548 z m 83.198982,1.82787 c -2.66428,-0.40027 -5.22278,-1.71756 -7.23665,-3.72593 -1.9655,-1.96012 -3.12512,-4.04847 -3.80855,-6.85879 l -0.35234,-1.44885 V 119.26804 84.634524 h 1.92635 1.92634 l 0.0803,34.886316 0.0803,34.88631 0.4478,1.17535 c 0.62101,1.62999 1.25182,2.60269 2.45285,3.78221 1.04736,1.02861 2.68822,1.99144 4.08235,2.39547 0.54958,0.15928 5.02159,0.22376 18.69516,0.26958 9.88503,0.0331 17.98957,0.0778 18.01007,0.0994 0.0205,0.0215 0.0505,0.90937 0.0666,1.97297 l 0.0293,1.93383 -17.71833,0.022 c -9.74508,0.0121 -18.15176,-0.0432 -18.68151,-0.12275 z M 95.531273,36.391978 c 0.156131,-0.532986 0.842083,-2.776012 1.524337,-4.984503 1.181063,-3.823164 1.226336,-4.026492 0.945504,-4.246274 -0.162227,-0.126959 -1.972525,-1.505284 -4.022888,-3.062943 -2.050361,-1.55766 -3.729931,-2.870029 -3.732377,-2.916376 -0.0024,-0.04635 2.237807,-0.06318 4.978342,-0.03741 l 4.982789,0.04685 0.21394,-0.552451 c 0.11767,-0.303848 0.81262,-2.543246 1.54433,-4.97644 0.73171,-2.433193 1.37651,-4.423988 1.43288,-4.423988 0.0564,0 0.78818,2.218314 1.62622,4.929587 l 1.52371,4.929588 4.98648,0.08427 4.98649,0.08427 -3.85066,2.949326 c -2.11786,1.622129 -3.92045,2.996441 -4.00575,3.054027 -0.0905,0.06112 0.48263,2.163536 1.37714,5.051336 0.84273,2.72065 1.50486,4.975378 1.4714,5.010508 -0.0335,0.03513 -1.85345,-1.307935 -4.04441,-2.984591 -2.19096,-1.676655 -4.05699,-3.020717 -4.14674,-2.986804 -0.0898,0.03391 -1.90642,1.398031 -4.037063,3.031374 -2.130638,1.633345 -3.910712,2.969717 -3.955719,2.969717 -0.04501,0 0.04591,-0.436079 0.202045,-0.969064 z"
         id="path4535"
         inkscape:connector-curvature="0" />
      <path
         style="fill:#ffffff;fill-opacity:1;stroke-width:0.16448213"
         d="m 79.742526,278.77738 c -7.764914,-1.53894 -13.707859,-7.66235 -15.172187,-15.63293 -0.183929,-1.00115 -0.334608,-1.83539 -0.334841,-1.85386 -1.6e-4,-0.0185 -1.029623,-0.04 -2.287534,-0.0478 -2.476001,-0.0153 -4.169709,-0.32859 -6.27036,-1.15937 -3.359336,-1.3286 -6.33002,-3.68521 -8.499742,-6.74275 -5.588543,-7.87529 -4.648042,-19.06642 2.168083,-25.79825 3.574593,-3.53039 7.935132,-5.35381 12.803104,-5.35381 9.1027,0 16.744802,6.72758 18.390926,16.19009 l 0.271196,1.55893 h 2.046081 2.046081 l 0.271196,-1.55893 c 0.743827,-4.2758 2.62228,-7.89575 5.652443,-10.89279 5.673968,-5.61192 13.853718,-6.92088 20.918378,-3.34745 5.09879,2.57908 9.18021,8.20161 10.12297,13.94531 0.0989,0.6025 0.2103,1.25742 0.24758,1.45537 0.065,0.3452 0.15314,0.36007 2.1562,0.36362 l 2.08843,0.004 0.001,-0.53216 c 0.003,-1.30128 0.86275,-4.30039 1.7903,-6.2434 2.63229,-5.51399 7.26803,-9.29426 12.97722,-10.58237 2.03475,-0.45907 5.12424,-0.4861 7.22379,-0.0632 6.51312,1.31193 11.9741,6.27151 14.14539,12.8466 0.68514,2.07473 0.94404,3.82526 0.94288,6.37525 -0.002,2.51781 -0.16542,3.8019 -0.7432,5.80916 -1.60386,5.57202 -5.87406,10.36199 -11.12831,12.48283 -2.29736,0.92732 -3.87024,1.2314 -6.4408,1.24524 l -2.34112,0.0126 -0.19576,1.43253 c -0.52415,3.83557 -2.3945,7.57894 -5.30585,10.61919 -2.46663,2.57584 -5.16801,4.19182 -8.59799,5.14335 -2.35375,0.65297 -5.4736,0.75488 -7.78117,0.25415 -2.20587,-0.47865 -3.30991,-0.87125 -5.06113,-1.79974 -4.86974,-2.58194 -8.37486,-7.19811 -9.72395,-12.80626 -0.25829,-1.07378 -0.46962,-2.15276 -0.46962,-2.39777 v -0.44548 h -2.08713 -2.08713 l -0.0892,0.58986 c -0.35902,2.37345 -1.05193,4.78322 -1.851951,6.44064 -0.678409,1.40546 -2.231802,3.60955 -3.467976,4.92064 -2.483599,2.63413 -5.514678,4.42287 -9.037925,5.33359 -1.82533,0.47183 -5.49766,0.59056 -7.288472,0.23563 z m 6.62664,-3.95847 c 5.923116,-1.48523 10.275826,-6.39106 11.342165,-12.78344 0.297005,-1.78047 0.31219,-1.64884 -0.205835,-1.78417 -0.242799,-0.0634 -1.047454,-0.41294 -1.788122,-0.77671 -5.338116,-2.62171 -9.258487,-7.83325 -10.431716,-13.86739 -0.177686,-0.91389 -0.369359,-1.7102 -0.42594,-1.76959 -0.05658,-0.0594 -0.957692,-0.10802 -2.002466,-0.10802 -1.044774,0 -1.945884,0.0486 -2.002466,0.10802 -0.05658,0.0594 -0.247527,0.85137 -0.424324,1.75997 -1.184069,6.08513 -5.057195,11.23663 -10.433332,13.87701 -0.740668,0.36377 -1.544939,0.71318 -1.787272,0.77649 -0.414096,0.10818 -0.434689,0.1571 -0.342322,0.81332 0.604979,4.29809 1.997569,7.25585 4.656422,9.8899 3.688353,3.65396 8.892375,5.10655 13.845208,3.86461 z m 41.419944,-0.002 c 4.21574,-1.0571 7.93644,-4.18133 9.92812,-8.33649 0.67665,-1.41165 1.27893,-3.50754 1.41037,-4.90795 l 0.11119,-1.18459 -1.02129,-0.38609 c -2.32823,-0.88018 -4.57651,-2.44046 -6.57034,-4.55971 -2.70875,-2.87911 -4.34077,-6.1306 -5.09248,-10.14576 -0.31715,-1.69401 -0.25297,-1.64633 -2.22082,-1.6498 -2.24678,-0.004 -2.20745,-0.0291 -2.44607,1.56302 -0.96856,6.46241 -5.92423,12.67696 -11.86105,14.87411 -0.9926,0.36735 -0.99709,0.39017 -0.52872,2.68904 1.33591,6.55699 6.23436,11.30126 12.78263,12.38028 1.33535,0.22003 3.91949,0.0624 5.50846,-0.33606 z m -63.59332,-17.4441 c 0.110363,-0.0363 0.201166,-0.277 0.201786,-0.5348 0.0016,-0.66522 0.583087,-3.16421 0.991435,-4.26075 1.030655,-2.76765 2.394045,-4.94816 4.373158,-6.99412 2.003045,-2.07069 4.696024,-3.88111 6.882189,-4.6267 l 0.609575,-0.20788 -0.103019,-0.78484 c -0.749476,-5.7097 -3.90675,-10.29209 -8.689819,-12.61218 -3.460766,-1.67871 -8.119092,-1.84538 -11.652501,-0.41695 -3.649188,1.47524 -6.408049,4.13725 -8.148483,7.86245 -1.556896,3.33235 -1.942531,6.65609 -1.201418,10.3549 1.313735,6.55667 6.65303,11.5491 13.165333,12.31006 1.031116,0.12049 3.091115,0.0691 3.571764,-0.0892 z m 40.89887,0.0919 c 0.49966,0 0.52567,-0.0331 0.62894,-0.80053 0.35056,-2.60521 1.51857,-5.76419 3.00663,-8.13171 0.901,-1.43349 2.9732,-3.70132 4.3975,-4.81264 1.31913,-1.02927 3.11037,-2.06172 4.49385,-2.59018 l 0.97304,-0.37169 -0.13233,-1.21086 c -0.38218,-3.49726 -2.42853,-7.47128 -5.03578,-9.77954 -3.09634,-2.74127 -6.59939,-3.97958 -10.66012,-3.76833 -3.990453,0.2076 -7.199663,1.71388 -9.978007,4.68328 -2.353654,2.51549 -3.735046,5.55021 -4.224793,9.28121 l -0.103019,0.78484 0.609575,0.20788 c 0.970164,0.33088 3.044328,1.44566 4.231654,2.27436 3.874405,2.70412 6.90555,7.41258 7.76674,12.06456 0.14366,0.77603 0.29512,1.57765 0.33658,1.78138 0.0636,0.31242 0.20722,0.3814 0.9172,0.44049 0.463,0.0385 1.15891,0.0425 1.54647,0.009 0.38755,-0.0337 0.9392,-0.0613 1.22587,-0.0613 z m 42.53592,-0.19853 c 2.93657,-0.47 5.79854,-2.101 8.12486,-4.6302 2.55454,-2.77736 3.93612,-6.11522 4.10921,-9.92786 0.18208,-4.01034 -0.68117,-7.19253 -2.79687,-10.31013 -0.87097,-1.28341 -2.91576,-3.30156 -4.11453,-4.0609 -4.42814,-2.80496 -9.97071,-3.16375 -14.48738,-0.93782 -4.56482,2.24966 -7.84923,6.99459 -8.54643,12.34689 l -0.1336,1.02561 0.81567,0.27663 c 0.44863,0.15213 1.43647,0.6162 2.19521,1.03125 5.15199,2.81829 8.84329,8.12334 9.79103,14.07147 l 0.20692,1.29866 0.89294,0.0615 c 1.10218,0.0759 2.46852,-0.009 3.94297,-0.24505 z M 69.613634,255.4795 c 3.59525,-2.12653 6.396748,-6.05615 7.224015,-10.13298 l 0.116413,-0.5737 -1.101755,0.63082 c -2.8281,1.61923 -5.012683,3.95161 -6.397767,6.83059 -0.530859,1.10342 -1.123267,2.74995 -1.257667,3.49554 -0.114633,0.63594 -0.06741,0.6276 1.416761,-0.25027 z m 27.694303,-0.57596 c -0.817088,-2.83764 -2.724286,-5.86997 -4.798638,-7.62954 -1.067795,-0.90576 -3.545657,-2.51205 -3.671417,-2.38002 -0.153162,0.1608 0.531782,2.36241 1.158186,3.72276 1.421796,3.08767 3.650652,5.50983 6.571565,7.14151 0.521592,0.29138 0.98128,0.4952 1.021529,0.45293 0.04025,-0.0423 -0.0863,-0.6307 -0.281225,-1.30764 z m 15.621043,-0.79743 c 2.57718,-2.1501 4.67754,-5.60192 5.32082,-8.74447 l 0.11434,-0.55855 -0.8578,0.45398 c -2.45774,1.30075 -4.87172,3.63282 -6.1732,5.96374 -0.76636,1.37251 -1.56959,3.40825 -1.75383,4.44495 l -0.11459,0.64477 1.12207,-0.59325 c 0.61714,-0.32628 1.67113,-1.05131 2.34219,-1.61117 z m 25.77403,0.97093 c -1.0721,-4.06169 -4.02736,-7.82486 -7.63587,-9.72334 l -0.99215,-0.52199 0.31645,1.21839 c 0.76571,2.94794 2.79532,6.16358 5.06319,8.02195 1.09142,0.89433 3.12519,2.19333 3.45705,2.20805 0.0606,0.003 -0.0333,-0.53868 -0.20867,-1.20306 z M 73.626851,215.85988 c -2.149449,-0.64845 -3.714961,-2.00049 -4.590348,-3.96442 -0.65336,-1.46581 -0.776552,-3.1665 -0.776552,-10.72043 0,-7.61285 0.120779,-9.24767 0.795457,-10.76706 0.651082,-1.46624 1.723842,-2.61138 3.107468,-3.31715 1.545424,-0.78828 2.543725,-0.9664 4.907043,-0.87548 1.631471,0.0628 2.217905,0.15738 3.08163,0.49716 1.462453,0.5753 2.629425,1.51875 3.373461,2.72732 1.164542,1.89161 1.152843,1.78916 1.220462,10.69029 0.06795,8.94526 -0.01717,10.29148 -0.755457,11.94784 -0.85637,1.92126 -2.770573,3.43241 -4.953221,3.91027 -1.30039,0.2847 -4.274693,0.21413 -5.409943,-0.12834 z m 3.632373,-5.02008 c 0.180921,-0.22883 0.220316,-1.95698 0.220316,-9.6647 0,-10.20477 0.02341,-9.94351 -0.891098,-9.94351 -1.114745,0 -1.157018,0.42895 -1.087927,11.03891 0.04036,6.1971 0.100945,8.17829 0.258989,8.46877 0.252481,0.46408 1.164,0.52517 1.49972,0.10053 z m 14.908693,5.07687 c -2.306361,-0.66216 -4.190326,-2.22365 -4.719254,-3.91146 -0.369671,-1.17961 -0.571417,-2.92464 -0.575013,-4.97366 l -0.0032,-1.81173 h 3.371102 3.371103 l 0.0091,2.31733 c 0.0052,1.32706 0.09094,2.5694 0.200661,2.90719 0.179972,0.55407 0.234393,0.58987 0.896655,0.58987 0.586749,0 0.761834,-0.0799 1.043437,-0.47597 0.286961,-0.40366 0.33608,-0.69852 0.323237,-1.94039 -0.02727,-2.63735 -0.214766,-2.89007 -4.301421,-5.7976 -2.809507,-1.99888 -3.732424,-2.89442 -4.304603,-4.17689 -0.587275,-1.31631 -0.770094,-2.43159 -0.767388,-4.6814 0.0041,-3.38863 0.643163,-5.13596 2.325294,-6.35759 1.551815,-1.12698 2.396589,-1.33767 5.377711,-1.3413 2.350306,-0.003 2.778179,0.0413 3.797748,0.39213 2.182014,0.75074 3.545814,2.06638 3.906614,3.76861 0.10399,0.49064 0.22938,1.859 0.27864,3.04084 l 0.0896,2.1488 h -3.376847 -3.376845 l -0.05783,-1.9127 c -0.06702,-2.2166 -0.199562,-2.51364 -1.086777,-2.43555 -0.838207,0.0738 -1.179491,0.82628 -1.093061,2.41012 0.08968,1.64345 0.361981,2.09183 1.920345,3.16216 0.729363,0.50095 1.966024,1.35085 2.748138,1.88865 3.889787,2.67472 4.796177,4.4386 4.809077,9.35875 0.0102,3.87422 -0.51283,5.34514 -2.34265,6.58876 -1.620314,1.10123 -2.60784,1.37157 -5.252945,1.43804 -1.719314,0.0432 -2.55842,-0.008 -3.210575,-0.19501 z M 103.677,215.54246 c -0.0374,-0.0695 0.75066,-6.53486 1.75115,-14.36743 1.0005,-7.83256 1.82142,-14.25999 1.82428,-14.28316 0.003,-0.0232 2.33537,-0.0421 5.18337,-0.0421 h 5.17819 l 1.98421,13.9461 c 1.09131,7.67036 2.02087,14.15466 2.06567,14.40957 l 0.0815,0.46346 h -3.69154 -3.69155 l -0.0943,-0.80053 c -0.0519,-0.44029 -0.14326,-1.61581 -0.20312,-2.61226 l -0.10882,-1.81173 h -1.23722 -1.23721 l -0.18564,2.32613 c -0.1021,1.27938 -0.18564,2.4549 -0.18564,2.61226 0,0.26084 -0.32555,0.28613 -3.68268,0.28613 -2.02548,0 -3.71326,-0.0569 -3.75062,-0.1264 z m 10.00253,-10.61757 c 9.6e-4,-0.3824 -0.78,-8.82499 -0.90814,-9.81704 -0.0539,-0.41712 -0.12202,-0.68256 -0.15144,-0.58987 -0.0695,0.21891 -0.9752,7.88992 -1.11932,9.47998 l -0.11075,1.22186 h 1.14444 c 0.98264,0 1.14455,-0.0417 1.14521,-0.29493 z m 9.09885,10.63476 c -0.0605,-0.0635 -0.11001,-6.54924 -0.11001,-14.41271 v -14.29721 h 4.88451 c 2.68647,0 5.44957,0.0797 6.14022,0.17705 2.81792,0.39731 4.25418,1.84151 4.79777,4.82422 0.4388,2.4078 0.18138,6.16207 -0.49708,7.24914 -0.32941,0.52783 -1.10652,1.0249 -1.96561,1.25731 l -0.68645,0.18568 0.84698,0.41085 c 1.01496,0.49232 1.63877,1.08204 2.10578,1.99065 0.33337,0.6486 0.34848,0.90231 0.39904,6.69918 l 0.0526,6.02505 h -3.38355 -3.38352 l -0.007,-5.51945 c -0.004,-3.0357 -0.0689,-5.85623 -0.14457,-6.26786 -0.15912,-0.86557 -0.49743,-1.18972 -1.24169,-1.18972 h -0.52926 l -0.042,6.44638 -0.042,6.44639 -3.54201,0.0453 c -1.94811,0.0249 -3.59153,-0.007 -3.65203,-0.0702 z m 8.55222,-17.75172 c 0.16147,-0.0907 0.37345,-0.40541 0.47102,-0.69928 0.22524,-0.67834 0.23135,-3.64193 0.009,-4.31188 -0.17915,-0.53954 -0.71726,-0.89105 -1.36406,-0.89105 h -0.39376 v 3.03359 3.0336 h 0.49213 c 0.27068,0 0.62428,-0.0742 0.78577,-0.16498 z m 10.06613,17.74857 c -0.0589,-0.0618 -0.10703,-6.54723 -0.10703,-14.41211 v -14.29975 l 4.69227,0.0447 4.69226,0.0447 0.83807,5.98292 c 0.46092,3.2906 0.85968,6.1346 0.8861,6.31998 0.0384,0.26954 1.59142,-11.80421 1.57705,-12.26077 -0.002,-0.0695 2.12704,-0.1264 4.73162,-0.1264 h 4.73559 v 14.29908 14.29909 l -2.28753,0.10987 c -1.25815,0.0604 -2.70228,0.11013 -3.20918,0.11047 h -0.92164 l -0.0415,-9.03866 -0.0415,-9.03865 -1.09933,8.91225 c -0.60463,4.90175 -1.13261,8.96914 -1.17331,9.03866 -0.0407,0.0695 -1.06974,0.1264 -2.28679,0.1264 h -2.21283 l -0.92241,-6.95198 c -0.50734,-3.82359 -1.05235,-7.86206 -1.21113,-8.97438 l -0.28871,-2.0224 -0.0179,8.97438 -0.018,8.97438 h -3.10355 c -1.70697,0 -3.15172,-0.0506 -3.21057,-0.11236 z M 43.527719,201.17249 v -14.32785 l 4.692265,0.0447 4.692267,0.0447 0.838056,5.98292 c 0.460933,3.2906 0.85968,6.1346 0.886108,6.31998 0.03842,0.26954 1.591415,-11.80421 1.57705,-12.26077 -0.0022,-0.0695 2.12704,-0.1264 4.731619,-0.1264 h 4.735596 v 14.3253 14.3253 h -3.209167 -3.209167 l -0.04154,-8.96164 -0.04154,-8.96163 -0.857681,6.98137 c -0.471725,3.83975 -0.970382,7.87249 -1.108128,8.96164 l -0.250447,1.98026 h -2.283714 -2.283715 l -0.160437,-1.1376 c -0.08824,-0.62568 -0.620694,-4.62388 -1.183227,-8.8849 l -1.022787,-7.74731 -0.04155,8.88491 -0.04155,8.8849 H 46.736875 43.52772 Z m 0,-22.32222 v -2.11251 h 17.560885 c 10.811358,0 18.199838,-0.0664 19.223313,-0.17285 5.588264,-0.581 10.526437,-3.10579 14.465526,-7.39595 3.086178,-3.36124 5.028953,-7.14836 6.102977,-11.89675 l 0.34308,-1.5168 0.049,-59.197183 0.0491,-59.197185 h 2.0851 2.08509 v 58.358941 c 0,39.287617 0.0544,58.825637 0.16657,59.787047 0.58328,5.00077 3.01469,10.18948 6.50664,13.88544 3.87871,4.1053 8.85907,6.60686 14.26353,7.16439 1.12998,0.11657 8.0231,0.1809 19.38385,0.1809 h 17.63027 v 2.11187 2.11187 l -19.22331,-0.0559 -19.22331,-0.0559 -1.76582,-0.44341 c -1.98913,-0.49948 -1.75539,-0.42679 -3.69216,-1.14808 -6.73311,-2.50752 -12.53653,-8.04204 -15.52763,-14.80815 l -0.6266,-1.41742 -0.52092,1.24889 c -2.14068,5.13221 -6.684521,10.23254 -11.702073,13.13525 -2.320147,1.34223 -4.612672,2.24722 -7.561271,2.98482 l -1.785751,0.44672 -19.143048,0.0573 -19.143048,0.0573 z m 0,-7.41599 v -2.11197 l 17.69829,-10e-4 c 19.371121,-0.001 19.45535,-0.005 22.154228,-0.98661 2.497176,-0.9084 4.503623,-2.27395 6.380033,-4.34212 2.686078,-2.96059 4.105024,-6.26728 4.494928,-10.47489 0.09093,-0.98125 0.153499,-19.26689 0.155979,-45.5835 l 0.0041,-43.944938 h 2.009187 2.009188 l -0.04703,45.461748 -0.04703,45.46176 -0.35565,1.60106 c -0.961344,4.32778 -2.738315,7.71849 -5.655532,10.79153 -2.560607,2.69738 -5.626246,4.54866 -9.278036,5.60283 l -1.878709,0.54234 -18.821991,0.0479 -18.821991,0.0479 z m 81.949901,1.85408 c -2.71808,-0.45274 -6.12675,-1.9221 -8.40265,-3.62205 -3.64735,-2.72434 -6.54796,-6.93435 -7.80625,-11.33016 -0.91558,-3.19858 -0.88086,-1.24604 -0.88427,-49.72782 l -0.003,-44.619088 h 2.00661 2.0066 l 0.008,43.860688 c 0.004,24.12338 0.0433,44.35365 0.0863,44.95616 0.20839,2.92089 0.69082,4.86507 1.75646,7.07838 0.87158,1.81026 1.55744,2.81228 2.92325,4.27077 1.83328,1.95767 3.82936,3.29491 6.21211,4.16168 2.7554,1.00234 2.77697,1.00331 22.28338,1.0044 l 17.77856,9.9e-4 v 2.10666 2.10666 l -18.3404,-0.0167 c -13.97387,-0.0126 -18.64616,-0.0676 -19.62464,-0.2306 z m -81.949901,-9.26657 v -2.1066 l 18.179876,-0.0464 18.179876,-0.0464 0.998644,-0.38154 c 2.976772,-1.1373 5.05144,-3.39168 6.085265,-6.61241 0.285261,-0.88869 0.299432,-2.35743 0.343512,-35.60258 l 0.04598,-34.675643 h 2.004433 2.004434 l -0.04236,35.012713 -0.04236,35.01271 -0.451389,1.5132 c -1.131349,3.79265 -3.581107,6.82743 -6.932931,8.58858 -2.779799,1.46059 -1.026655,1.34816 -21.872037,1.4026 l -18.500933,0.0483 z m 82.467851,1.83966 c -0.59803,-0.12488 -1.64939,-0.48218 -2.33636,-0.79399 -4.11163,-1.86627 -7.04104,-5.56375 -7.91177,-9.98618 -0.28545,-1.4498 -0.29874,-3.04093 -0.30075,-36.02391 l -0.002,-34.507113 h 2.00436 2.00435 l 0.0424,34.675643 0.0424,34.67565 0.44451,1.31925 c 1.02649,3.04644 3.07366,5.18485 5.97664,6.243 0.95077,0.34656 1.19836,0.35173 19.22331,0.40122 l 18.26014,0.0501 v 2.10251 2.10252 l -18.17987,-0.0159 c -14.55114,-0.0127 -18.39691,-0.0611 -19.26722,-0.24289 z M 111.20487,37.342739 c -1.26774,-1.046921 -7.67908,-5.880349 -7.80004,-5.880349 -0.13698,0 -0.85119,0.532256 -5.764077,4.295558 -1.272044,0.974395 -2.3814,1.771627 -2.465238,1.771627 -0.08384,0 -0.103263,-0.13272 -0.04317,-0.294933 0.06009,-0.162213 0.64932,-2.039248 1.309391,-4.171189 0.660072,-2.131942 1.331485,-4.270993 1.492029,-4.753449 l 0.291901,-0.87719 -4.066269,-3.083334 c -2.236449,-1.695832 -4.068989,-3.139146 -4.072312,-3.207363 -0.0033,-0.06822 2.281911,-0.144059 5.078296,-0.168533 l 5.084339,-0.0445 1.52794,-5.013854 c 0.84038,-2.75762 1.5702,-5.013854 1.62183,-5.013854 0.0516,0 0.76404,2.180394 1.58313,4.845321 0.81908,2.664927 1.5193,4.940121 1.55602,5.055987 0.0516,0.162597 1.22176,0.210666 5.12848,0.210666 2.78393,0 5.05744,0.05688 5.05224,0.1264 -0.005,0.06952 -1.80946,1.491516 -4.00947,3.159992 -2.20001,1.668476 -4.00075,3.109432 -4.00165,3.202126 -9.6e-4,0.09269 0.68348,2.399706 1.52082,5.126695 0.83734,2.726989 1.49755,4.984285 1.46714,5.016213 -0.0304,0.03193 -0.25151,-0.103986 -0.49133,-0.302036 z"
         id="path4533"
         inkscape:connector-curvature="0" />
    </g>
  </g>
</svg>
